<svg width="1457" height="638" viewBox="0 0 1457 638" fill="none" xmlns="http://www.w3.org/2000/svg">
<rect width="1457" height="638" fill="white"/>
<path d="M69 383C69.6157 378.074 84.8106 369.992 88.2222 367.778C104.02 357.526 118.183 345.557 133 334C154.619 317.137 176.156 300.676 196.222 282C213.849 265.595 229.262 246.978 244 228C260.403 206.878 274.384 183.803 290.556 162.444C306.234 141.737 319.435 119.545 334.778 98.6667C345.011 84.7405 354.298 70.284 364 56C365.054 54.448 368.643 47.6813 370.444 47.1667C370.893 47.0385 366.481 55.4965 366 56.4444C349.3 89.3674 330.666 121.286 315 154.778C293.345 201.074 270.845 246.999 249.222 293.333C239.626 313.897 229.34 334.087 219.778 354.667C212.147 371.089 203.923 387.808 194.778 403.444C182.992 423.594 169.799 443.173 159.222 464C148.673 484.774 138.952 506.135 129.556 527.444C119.535 550.171 104.431 570.542 91.4445 591.556C84.7537 602.382 78.0782 613.477 69 622.556C56.0529 635.503 27.7503 641.182 13 629.222C0.769644 619.306 0.199479 597.707 4.22224 584C9.81646 564.938 19.917 544.349 31.2222 528C58.3846 488.719 95.8615 459.722 135.111 433.556C188.7 397.83 250.799 377.309 306.333 345.222C315.372 340 322.472 334.083 329.778 326.778C335.453 321.103 318.308 339.758 318 347.778C317.883 350.833 317.109 354.616 320 356.222C323.616 358.231 327.859 360.071 332 358C336.617 355.692 340.386 351.614 344 348C346.831 345.169 350.441 346 354.222 346C362.249 346 363.71 355 371.778 355C379.493 355 384.449 352.286 390 347C391.955 345.138 394.343 343.33 396.444 341.611C398.472 339.952 398.55 344.553 398.778 345.778C399.457 349.426 398.911 357.803 404.222 358C414.129 358.367 423.681 353 433.778 353C442.414 353 453.889 343.908 459.778 338.222C466.51 331.722 470.356 323.526 476 316.222C483.854 306.059 490.853 293.889 497.222 282.778C505.06 269.103 511.246 256.075 517 241.444C521.105 231.006 523.055 220.074 526 209.333C529.889 195.149 530.195 178.562 536.222 165C538.966 158.826 530.766 171.538 529.778 173.222C523.941 183.167 521.464 194.67 517 205.222C512.876 214.97 509.012 227.367 507.222 237.778C505.253 249.234 500.654 260.038 497 271C493.31 282.071 490.159 293.544 487 304.778C484.538 313.53 482 322.683 482 331.778C482 335.398 481.35 339.005 483.222 342C484.769 344.475 490.457 344.951 493 346.222C499.929 349.687 509.423 341.348 514 337C517.572 333.606 522.941 328.71 527.778 327.222C531.724 326.008 538 333.923 538 337.444C538 348.321 553.998 342.002 559 337" stroke="black" stroke-width="3" stroke-linecap="round"/>
<path d="M475 575C481.149 567.484 485.887 556.56 489.778 547.667C497.525 529.96 505.628 512.086 514.556 494.944C522.881 478.96 531.351 462.783 540.222 447.111C549.676 430.409 557.094 412.884 567.389 396.611C590.71 359.748 614.909 322.814 636.222 284.778C645.815 267.659 657.944 251.979 667.944 235.056C675.339 222.542 682.981 210.136 691 198C717.106 158.488 743.897 119.38 770.944 80.5C778.347 69.8587 787.05 59.8518 794 49.2222C796.177 45.8925 800.663 38.6686 804 37" stroke="black" stroke-width="3" stroke-linecap="round"/>
<path d="M542 85C582.235 85 622.395 81.4535 662.556 79C695.489 76.988 728.341 73.7446 761.056 69.5556C797.392 64.9027 833.758 63.0375 870.278 60.5556C905.845 58.1384 941.386 57.0251 976.889 54.2222C999.957 52.4011 1022.7 49.3773 1045.5 46C1071.28 42.1807 1099.85 30.7854 1119.5 13.4444C1123.09 10.2738 1126.07 7.3963 1127.78 3.00001C1128.73 0.548412 1105.67 7.63333 1104 8.22223C1086.08 14.5288 1068.17 20.8602 1050.39 27.5556C1031.5 34.6694 1012.5 42.0932 996.056 54C972.148 71.3123 948.258 89.5181 926.5 109.5C898.229 135.463 865.757 157.283 839.444 185.333C820.018 206.042 798.144 226.518 782 250C776.765 257.615 769.647 264.241 763.778 271.444C759.441 276.767 755.406 282.794 750.778 287.778C742.811 296.357 734.378 305.1 727.444 314.556C722.513 321.28 716.651 326.685 712.778 334C710.727 337.874 703.937 349.139 706.111 345.333C709.642 339.154 717.115 336.247 722.667 332.333C728.908 327.934 734.841 322.211 741.222 318.222C745.91 315.292 764.039 304.54 756.222 318.778C751.667 327.074 747.174 335.123 741.056 342.389C740.625 342.9 737.616 345.758 740.444 344.556C745.934 342.222 751.666 340.257 757.389 338.556C763.602 336.708 764.853 334.942 760 341.222C759.78 341.507 756.123 346.379 756.167 346.444C756.884 347.521 766.114 343.578 767.222 343.222C768.664 342.76 772.195 341.269 773.778 341.444C774.431 341.517 773.512 343.7 774.611 343.944C782.811 345.767 793.687 342.698 801.833 341.5C807.216 340.708 806.198 340.639 806 344C805.817 347.113 809.911 347.093 812.222 347.778C825.327 351.661 844.615 342.69 854.889 335.556C885.8 314.09 912.077 287.221 940.778 263C968.609 239.513 997.665 217.23 1022.5 190.556C1023.35 189.64 1033.62 178.989 1033.78 179.222C1034.49 180.286 1026.78 191.28 1025.89 192.611C1011.68 213.929 997.691 236.356 981 255.778C973.151 264.911 965.75 274.482 958.444 284.056C950.212 294.843 941.313 304.441 934.611 316.389C931.51 321.917 929.713 328.188 927.222 334C926.345 336.047 924.765 339.721 928.444 338.778C938.681 336.153 948.392 330.149 957.5 324.944C959.468 323.82 961.375 322.587 963.333 321.444C964.425 320.807 966.556 318.18 966.556 319.444C966.556 320.938 961.511 326.172 960.611 327.833C960.175 328.638 957.553 331.996 959.5 331.833C967.215 331.19 974.666 327.334 982.333 326C983.324 325.828 993.403 323.049 993.833 324.556C994.149 325.661 992 327.586 992 329C992 330.402 1003.88 330.54 1005.56 331.056C1016 334.269 1027.17 337.337 1038.17 336.944C1049.02 336.557 1059.76 334.453 1070.39 332.389C1093.67 327.87 1116.95 323.343 1140.22 318.778C1216.63 303.788 1293.64 293.596 1371 285" stroke="black" stroke-width="3" stroke-linecap="round"/>
<path d="M843 260C868.43 259.501 893.747 255.749 919.111 254C958.756 251.266 998.426 248.386 1038.06 245.389C1106.58 240.206 1175.14 235.493 1243.67 230.222C1314.13 224.802 1384.23 215 1455 215" stroke="black" stroke-width="3" stroke-linecap="round"/>
</svg>
